<svg viewBox="0 0 512 128" fill="none" xmlns="http://www.w3.org/2000/svg">
<path d="M475.14 25.87H486.23V60.9L499.08 44H510.86L496.33 62.2L512 84H499.46L486.23 65.11V84H475.14V25.87Z" fill="#1B1B1B"/>
<path d="M410.45 44H422.08L429.19 70.92L436.91 44H446.01L453.05 70.92L460.62 44H471.25L458.63 84H447.77L440.96 58.91L433.62 84H422.61L410.45 44Z" fill="#1B1B1B"/>
<path d="M371.87 72.91C371.87 63.58 380.44 60.06 392.67 60.06H397.18V58.45C397.18 53.71 395.73 51.11 390.68 51.11C386.32 51.11 384.33 53.33 383.87 56.77H373.4C374.09 47.29 381.58 43.08 391.37 43.08C401.16 43.08 408.12 47.06 408.12 57.92V84H397.34V79.18C395.05 82.39 391.53 84.84 385.26 84.84C377.99 84.84 371.87 81.32 371.87 72.91ZM397.19 70V66.63H392.91C386.49 66.63 382.74 68.01 382.74 72.29C382.74 75.2 384.5 77.11 388.55 77.11C393.44 77.12 397.19 74.44 397.19 70Z" fill="#1B1B1B"/>
<path d="M328.38 25.87H339.47V50.34C341.46 46.36 345.82 43.07 352.47 43.07C360.35 43.07 365.93 47.81 365.93 58.52V84H354.84V60.14C354.84 54.71 352.7 52.11 347.8 52.11C343.06 52.11 339.46 55.02 339.46 60.91V84H328.37V25.87H328.38Z" fill="#1B1B1B"/>
<path d="M298.66 79.95L282.75 44H294.68L304.39 68.02L313.34 44H323.97L302.33 97.61H291.62L298.66 79.95Z" fill="#1B1B1B"/>
<path d="M275.05 75.89C272.22 75.89 270.61 74.36 270.61 71.15V51.9H279.02V44H270.61V35.36H259.6C259.6 38.5 259.6 41.36 259.6 44H255.5V51.9H259.59C259.59 63.25 259.59 68.49 259.59 70.7C259.59 70.73 259.59 71.1 259.59 72.15C259.59 80.49 264.1 84.77 272.52 84.77C275.5 84.77 277.72 84.23 279.25 83.7V75.13C277.95 75.66 276.73 75.89 275.05 75.89Z" fill="#1B1B1B"/>
<path d="M247.64 75.89C244.81 75.89 243.2 74.36 243.2 71.15V51.9H251.19V44H243.2L243.19 35.36H232.19C232.19 38.5 232.19 41.36 232.19 44H226.5V51.9H232.19C232.19 63.25 232.19 68.49 232.19 70.7C232.19 70.73 232.19 71.1 232.19 72.15C232.19 80.49 236.7 84.77 245.12 84.77C248.1 84.77 250.32 84.23 251.85 83.7V75.13C250.55 75.66 249.32 75.89 247.64 75.89Z" fill="#1B1B1B"/>
<path fill-rule="evenodd" clip-rule="evenodd" d="M215.46 26.49C211.94 26.49 209.19 29.09 209.19 32.53C209.19 35.97 211.95 38.57 215.46 38.57C219.06 38.57 221.81 35.97 221.81 32.53C221.81 29.09 219.05 26.49 215.46 26.49ZM221 44H210V84H221V44Z" fill="#1B1B1B"/>
<path d="M160 29.32H172V52.88L191.12 29.24H204.27L182.63 55.17L205.35 84H190.89L172 59.45V84H160V29.32Z" fill="#1B1B1B"/>
<path d="M28 12C18.81 12 12 18.81 12 28C12 37.28 18.4 44 28 44H44V28C44 18.4 37.28 12 28 12ZM0 28C0 12.19 12.19 0 28 0C43.72 0 56 11.6 56 28V44H72V28C72 11.6 84.28 0 100 0C115.81 0 128 12.19 128 28C128 43.72 116.4 56 100 56H28C11.6 56 0 43.72 0 28ZM100 12C90.72 12 84 18.4 84 28V44H100C109.6 44 116 37.28 116 28C116 18.81 109.19 12 100 12ZM7.88 79.88C13 74.77 20.08 72 28 72H100C107.92 72 115 74.77 120.12 79.88C125.23 85 128 92.08 128 100C128 115.81 115.81 128 100 128C92.08 128 85 125.23 79.88 120.12C74.77 115 72 107.92 72 100V84H56V100C56 107.92 53.23 115 48.12 120.12C43 125.23 35.92 128 28 128C12.19 128 0 115.81 0 100C0 92.08 2.77 85 7.88 79.88ZM16.37 88.37C13.73 91 12 94.92 12 100C12 109.19 18.81 116 28 116C33.08 116 37 114.27 39.63 111.63C42.27 109 44 105.08 44 100V84H28C22.92 84 19 85.73 16.37 88.37ZM100 84H84V100C84 105.08 85.73 109 88.37 111.63C91 114.27 94.92 116 100 116C109.19 116 116 109.19 116 100C116 94.92 114.27 91 111.63 88.37C109 85.73 105.08 84 100 84Z" fill="#1B1B1B"/>
</svg>
